<svg version="1.1" id="Layer_1" xmlns="http://www.w3.org/2000/svg" xmlns:xlink="http://www.w3.org/1999/xlink" x="0px" y="0px"
	 width="100%" viewBox="0 0 500 500" enable-background="new 0 0 500 500" xml:space="preserve">
<path fill="#1E9DF1" opacity="1.000000" stroke="none" 
	d="
M335.000000,501.000000 
	C223.333359,501.000000 112.166718,501.000000 1.000060,501.000000 
	C1.000040,334.333405 1.000040,167.666794 1.000020,1.000149 
	C167.666565,1.000099 334.333130,1.000099 500.999756,1.000050 
	C500.999847,167.666519 500.999847,334.333038 500.999939,500.999786 
	C445.833344,501.000000 390.666656,501.000000 335.000000,501.000000 
M269.298096,90.145012 
	C263.983490,89.761284 258.667816,89.033409 253.354416,89.049454 
	C217.781143,89.156830 185.398438,99.069862 157.258072,121.265533 
	C123.273781,148.070572 103.289345,183.165451 99.142494,226.128708 
	C94.147949,277.874390 111.237320,321.936462 150.276093,356.610687 
	C184.160614,386.706879 224.434525,398.540894 269.128967,393.620605 
	C307.158844,389.433960 339.418732,372.456146 364.747131,343.725128 
	C399.373230,304.447327 411.124634,258.543304 399.729156,207.585464 
	C390.348694,165.638123 366.337341,133.474304 329.628265,110.851448 
	C311.305389,99.559555 291.290253,93.398796 269.298096,90.145012 
z"/>
<path fill="#FCFEFF" opacity="1.000000" stroke="none" 
	d="
M269.739258,90.214478 
	C291.290253,93.398796 311.305389,99.559555 329.628265,110.851448 
	C366.337341,133.474304 390.348694,165.638123 399.729156,207.585464 
	C411.124634,258.543304 399.373230,304.447327 364.747131,343.725128 
	C339.418732,372.456146 307.158844,389.433960 269.128967,393.620605 
	C224.434525,398.540894 184.160614,386.706879 150.276093,356.610687 
	C111.237320,321.936462 94.147949,277.874390 99.142494,226.128708 
	C103.289345,183.165451 123.273781,148.070572 157.258072,121.265533 
	C185.398438,99.069862 217.781143,89.156830 253.354416,89.049454 
	C258.667816,89.033409 263.983490,89.761284 269.739258,90.214478 
M118.837387,206.432968 
	C117.750641,211.807999 116.373070,217.142807 115.623627,222.564468 
	C110.126060,262.335358 119.890297,298.267029 145.599518,328.835480 
	C178.421677,367.861206 220.976746,383.656830 271.631775,377.014648 
	C323.154114,370.258789 369.532135,329.294861 382.869690,278.947937 
	C398.073303,221.557007 378.143402,164.181198 329.472748,130.079742 
	C289.339508,101.960136 245.219925,97.163033 199.816238,115.165573 
	C158.267441,131.639633 131.672836,162.732086 118.837387,206.432968 
z"/>
<path fill="#1F9DF1" opacity="1.000000" stroke="none" 
	d="
M118.912003,206.030579 
	C131.672836,162.732086 158.267441,131.639633 199.816238,115.165573 
	C245.219925,97.163033 289.339508,101.960136 329.472748,130.079742 
	C378.143402,164.181198 398.073303,221.557007 382.869690,278.947937 
	C369.532135,329.294861 323.154114,370.258789 271.631775,377.014648 
	C220.976746,383.656830 178.421677,367.861206 145.599518,328.835480 
	C119.890297,298.267029 110.126060,262.335358 115.623627,222.564468 
	C116.373070,217.142807 117.750641,211.807999 118.912003,206.030579 
M304.469269,257.954529 
	C308.265015,255.736420 312.060730,253.518311 316.505493,250.920914 
	C272.631866,225.858780 229.567673,201.259033 185.945007,176.340256 
	C185.945007,226.524445 185.945007,275.601593 185.945007,325.680237 
	C225.657150,302.977692 264.738708,280.635651 304.469269,257.954529 
z"/>
<path fill="#FCFEFF" opacity="1.000000" stroke="none" 
	d="
M304.144775,258.124084 
	C264.738708,280.635651 225.657150,302.977692 185.945007,325.680237 
	C185.945007,275.601593 185.945007,226.524445 185.945007,176.340256 
	C229.567673,201.259033 272.631866,225.858780 316.505493,250.920914 
	C312.060730,253.518311 308.265015,255.736420 304.144775,258.124084 
M209.344803,208.137573 
	C206.928757,206.808350 204.512726,205.479126 201.639374,203.898300 
	C201.639374,235.560883 201.639374,266.515137 201.639374,298.236389 
	C229.306961,282.398499 256.380951,266.900391 284.174103,250.990631 
	C258.712250,236.421051 234.339127,222.474442 209.344803,208.137573 
z"/>
<path fill="#219EF1" opacity="1.000000" stroke="none" 
	d="
M209.655396,208.332703 
	C234.339127,222.474442 258.712250,236.421051 284.174103,250.990631 
	C256.380951,266.900391 229.306961,282.398499 201.639374,298.236389 
	C201.639374,266.515137 201.639374,235.560883 201.639374,203.898300 
	C204.512726,205.479126 206.928757,206.808350 209.655396,208.332703 
z"/>
</svg>